<svg width="165.61739mm" height="105.56892mm" viewBox="0 0 165.61739 105.56892" version="1.1" id="svg5" inkscape:version="1.1.2 (b8e25be833, 2022-02-05)" sodipodi:docname="Crown.svg"
    xmlns:inkscape="http://www.inkscape.org/namespaces/inkscape"
    xmlns:sodipodi="http://sodipodi.sourceforge.net/DTD/sodipodi-0.dtd"
    xmlns="http://www.w3.org/2000/svg"
    xmlns:svg="http://www.w3.org/2000/svg">
    <sodipodi:namedview id="namedview7" pagecolor="#d3d3d3" bordercolor="#ffffff" borderopacity="1" inkscape:pageshadow="0" inkscape:pageopacity="0" inkscape:pagecheckerboard="1" inkscape:document-units="mm" showgrid="false" inkscape:snap-nodes="false" fit-margin-top="0" fit-margin-left="0" fit-margin-right="0" fit-margin-bottom="0" inkscape:zoom="0.183293" inkscape:cx="-253.69218" inkscape:cy="-501.92861" inkscape:window-width="1920" inkscape:window-height="1009" inkscape:window-x="-8" inkscape:window-y="-8" inkscape:window-maximized="1" inkscape:current-layer="layer1" />
    <defs id="defs2">
        <inkscape:path-effect effect="skeletal" id="path-effect33490" is_visible="true" lpeversion="1" pattern="M 0,4.9921382 C 0,2.2364779 2.2364779,0 4.9921382,0 c 2.7556604,0 4.9921383,2.2364779 4.9921383,4.9921382 0,2.7556604 -2.2364779,4.9921383 -4.9921383,4.9921383 C 2.2364779,9.9842765 0,7.7477986 0,4.9921382 Z" copytype="single_stretched" prop_scale="1" scale_y_rel="false" spacing="0" normal_offset="0" tang_offset="0" prop_units="false" vertical_pattern="false" hide_knot="false" fuse_tolerance="0" />
    </defs>
    <g inkscape:label="Layer 1" inkscape:groupmode="layer" id="layer1" transform="translate(-137.41507,-331.38632)">
        <g id="g37418" transform="matrix(0.87693826,0,0,0.87693826,27.101119,47.276724)">
            <path sodipodi:type="star" style="opacity:1;fill:#ff2a2a;stroke:none;stroke-width:10;stroke-linecap:round;stroke-linejoin:round" id="path2763-1-1" inkscape:flatsided="true" sodipodi:sides="4" sodipodi:cx="-511.47617" sodipodi:cy="1125.2476" sodipodi:r1="98.288635" sodipodi:r2="69.500557" sodipodi:arg1="1.5707963" sodipodi:arg2="2.3561945" inkscape:rounded="0" inkscape:randomized="0" transform="matrix(0.11037687,0,0,0.11037687,204.719,289.24753)" inkscape:transform-center-y="3.6147901e-06" d="m -511.47616,1223.5362 -98.28864,-98.2886 98.28863,-98.2887 98.28864,98.2887 z" />
            <path id="path2763-1-1-3" style="opacity:1;fill:#d40000;stroke:none;stroke-width:4.17172;stroke-linecap:round;stroke-linejoin:round" inkscape:transform-center-y="3.6147901e-06" d="m 560.36719,1521.6387 -40.70117,40.6992 75.65625,6.3516 6.04882,-6.0489 z" transform="scale(0.26458333)" />
            <path sodipodi:type="star" style="opacity:1;fill:#ff2a2a;stroke:none;stroke-width:10;stroke-linecap:round;stroke-linejoin:round" id="path2763-1-0-5" inkscape:flatsided="true" sodipodi:sides="4" sodipodi:cx="-511.47617" sodipodi:cy="1125.2476" sodipodi:r1="98.288635" sodipodi:r2="69.500557" sodipodi:arg1="1.5707963" sodipodi:arg2="2.3561945" inkscape:rounded="0" inkscape:randomized="0" transform="matrix(0.11037687,0,0,0.11037687,348.6388,289.24753)" inkscape:transform-center-y="3.6147901e-06" d="m -511.47616,1223.5362 -98.28864,-98.2886 98.28863,-98.2887 98.28864,98.2887 z" />
            <path id="path2763-1-0-5-3" style="opacity:1;fill:#d40000;fill-opacity:1;stroke:none;stroke-width:4.17172;stroke-linecap:round;stroke-linejoin:round" inkscape:transform-center-y="3.6147901e-06" d="m 1104.3164,1521.6387 -40.1504,40.1484 15.7754,11.9512 64.4375,-12.0391 z" transform="scale(0.26458333)" />
            <path id="rect1898-1-0" style="fill:#ffdd55;stroke:none;stroke-width:7.88931;stroke-linecap:round;stroke-linejoin:round" d="m 560.36719,1473.7988 v 149.5332 l 36.59765,28.1524 H 1040.793 l 63.5234,-33.3653 v -144.3203 z" transform="scale(0.26458333)" />
            <path sodipodi:type="star" style="opacity:1;fill:#ffdd55;stroke:none;stroke-width:10;stroke-linecap:round;stroke-linejoin:round" id="path2002-5-9" inkscape:flatsided="false" sodipodi:sides="3" sodipodi:cx="-1037.7468" sodipodi:cy="1145.7651" sodipodi:r1="284.83096" sodipodi:r2="142.41547" sodipodi:arg1="0.52359878" sodipodi:arg2="1.5707963" inkscape:rounded="0" inkscape:randomized="0" transform="matrix(0.14442397,0,0,0.13012101,370.09929,225.62636)" inkscape:transform-center-y="-9.2656312" inkscape:transform-center-x="1.8752132e-06" d="m -791.07598,1288.1806 -246.67082,0 -246.6709,0 123.3355,-213.6232 123.3354,-213.62323 123.33538,213.62323 z" />
            <path id="path2002-9-3-4" style="fill:#ffdd55;stroke-width:1.03619;stroke-linecap:round;stroke-linejoin:round" inkscape:transform-center-y="-9.2656234" d="M 188.97153,393.24573 H 168.6177 148.26386 v -27.79687 -27.79687 l 21.5091,27.79687 z" sodipodi:nodetypes="ccccccc" />
            <path id="rect1898-1-0-12" style="fill:#ffd738;fill-opacity:1;stroke:none;stroke-width:7.88931;stroke-linecap:round;stroke-linejoin:round" d="m 827.48242,1283.7461 -62.46289,97.4785 -59.32226,92.5742 h -0.0977 l -63.9375,-92.5742 -60.21875,-77.8223 c 31.54265,52.3062 122.12109,200.6563 122.12109,200.6563 L 829.9082,1284.1641 Z" transform="scale(0.26458333)" />
            <path id="rect1898-1-0-1" style="fill:#000000;fill-opacity:0;stroke:none;stroke-width:7.88931;stroke-linecap:round;stroke-linejoin:round" d="m 560.36719,1276.1641 v 105.0605 92.5742 12.4844 165.2012 H 1104.3164 V 1473.7988 H 958.98828 l -59.32422,-92.5742 -67.32226,-105.0605 -67.32227,105.0605 -59.32226,92.5742 h -0.0977 l -63.9375,-92.5742 z" transform="scale(0.26458333)" />
            <path id="path2002-9-8-9-7" style="fill:#ffdd55;stroke-width:1.03619;stroke-linecap:round;stroke-linejoin:round" inkscape:transform-center-y="-9.2656234" d="m 251.47605,393.24573 h 20.35383 20.35384 v -27.79687 -27.79687 l -21.5091,27.79687 z" sodipodi:nodetypes="ccccccc" />
            <path id="rect1898-1-0-8" style="fill:#ffd738;fill-opacity:1;stroke:none;stroke-width:7.88931;stroke-linecap:round;stroke-linejoin:round" d="m 836.06836,1281.9785 -0.6582,1.4863 121.39062,214.8184 137.07622,-203.9082 -1.1934,-3.1758 -69.6621,90.0254 -63.93752,92.5742 h -0.0977 l -59.32227,-92.5742 z" transform="scale(0.26458333)" />
            <path id="rect1898-1-0-4" style="fill:#ffd738;fill-opacity:1;stroke:none;stroke-width:7.88931;stroke-linecap:round;stroke-linejoin:round" d="m 1104.3164,1276.1641 -54.9961,334.4648 -410.0371,40.8555 h 401.5098 l 63.5234,-33.3653 v -131.8359 -12.4844 -92.5742 z" transform="scale(0.26458333)" />
            <path id="rect1898-1-0-4-4" style="fill:#ffd738;fill-opacity:1;stroke:none;stroke-width:7.88931;stroke-linecap:round;stroke-linejoin:round" d="m 560.36719,1276.1641 v 105.0605 92.5742 12.4844 137.0488 l 36.59765,28.1524 h 428.43556 l -410.03712,-40.8555 z" transform="scale(0.26458333)" />
            <circle style="fill:#ffd118;fill-opacity:1;stroke:none;stroke-width:2.64583;stroke-linecap:round;stroke-linejoin:round" id="path2591-7" cx="149.7972" cy="338.60382" r="7.2174969" />
            <circle style="fill:#ffd118;fill-opacity:1;stroke:none;stroke-width:2.64583;stroke-linecap:round;stroke-linejoin:round" id="path2591-4-0" cx="220.22377" cy="338.60382" r="7.2174969" />
            <circle style="fill:#ffd118;fill-opacity:1;stroke:none;stroke-width:2.64583;stroke-linecap:round;stroke-linejoin:round" id="path2591-4-6-2" cx="291.49756" cy="338.60382" r="7.2174969" />
            <path sodipodi:type="star" style="font-variation-settings:normal;opacity:1;vector-effect:none;fill:#ff2a2a;fill-opacity:1;stroke:none;stroke-width:10;stroke-linecap:round;stroke-linejoin:round;stroke-miterlimit:4;stroke-dasharray:none;stroke-dashoffset:0;stroke-opacity:1;-inkscape-stroke:none;stop-color:#000000;stop-opacity:1" id="path2763-5" inkscape:flatsided="true" sodipodi:sides="4" sodipodi:cx="-511.47617" sodipodi:cy="1125.2476" sodipodi:r1="98.288635" sodipodi:r2="69.500557" sodipodi:arg1="1.5707963" sodipodi:arg2="2.3561945" inkscape:rounded="0" inkscape:randomized="0" transform="matrix(0.11037687,0,0,0.11037687,276.67892,289.24753)" inkscape:transform-center-y="3.6147901e-06" d="m -511.47616,1223.5362 -98.28864,-98.2886 98.28863,-98.2887 98.28864,98.2887 z" />
            <path id="path2763-5-5" style="font-variation-settings:normal;opacity:1;vector-effect:none;fill:#d40000;fill-opacity:1;stroke:none;stroke-width:4.17172;stroke-linecap:round;stroke-linejoin:round;stroke-miterlimit:4;stroke-dasharray:none;stroke-dashoffset:0;stroke-opacity:1;-inkscape-stroke:none;stop-color:#000000;stop-opacity:1" inkscape:transform-center-y="3.6147901e-06" d="m 832.3418,1521.6387 -41.00391,41.0019 2.07031,2.0703 36.5,8.7871 43.03125,-10.4511 0.40625,-0.4063 z" transform="scale(0.26458333)" />
            <path style="opacity:0.5;fill:#ffffff;stroke:none;stroke-width:0.264583px;stroke-linecap:butt;stroke-linejoin:miter;stroke-opacity:1" d="m 284.52242,409.81434 -12.75887,12.50368 -17.86238,7.40013 29.8557,-3.82764 z" id="path33791" />
            <path style="opacity:0.5;fill:#ffffff;fill-opacity:1;stroke:none;stroke-width:0.264583px;stroke-linecap:butt;stroke-linejoin:miter;stroke-opacity:1" d="m 152.3407,360.56517 2.80695,64.81498 12.50368,6.88977 z" id="path36051" />
        </g>
    </g>
</svg>
